<?xml version="1.0" encoding="UTF-8" standalone="no"?>
<svg
   xmlns:dc="http://purl.org/dc/elements/1.1/"
   xmlns:cc="http://creativecommons.org/ns#"
   xmlns:rdf="http://www.w3.org/1999/02/22-rdf-syntax-ns#"
   xmlns:svg="http://www.w3.org/2000/svg"
   xmlns="http://www.w3.org/2000/svg"
   xmlns:sodipodi="http://sodipodi.sourceforge.net/DTD/sodipodi-0.dtd"
   xmlns:inkscape="http://www.inkscape.org/namespaces/inkscape"
   inkscape:version="1.0beta2 (2b71d25, 2019-12-03)"
   sodipodi:docname="theodo-white.svg"
   xml:space="preserve"
   style="enable-background:new 0 0 229.1 45.7;"
   viewBox="0 0 229.1 45.7"
   y="0px"
   x="0px"
   id="Calque_1"
   version="1.1"><metadata
   id="metadata862"><rdf:RDF><cc:Work
       rdf:about=""><dc:format>image/svg+xml</dc:format><dc:type
         rdf:resource="http://purl.org/dc/dcmitype/StillImage" /><dc:title></dc:title></cc:Work></rdf:RDF></metadata><defs
   id="defs860" /><sodipodi:namedview
   inkscape:current-layer="Calque_1"
   inkscape:window-maximized="0"
   inkscape:window-y="44"
   inkscape:window-x="0"
   inkscape:cy="-0.094353771"
   inkscape:cx="78.889259"
   inkscape:zoom="2.14769"
   showgrid="false"
   id="namedview858"
   inkscape:window-height="832"
   inkscape:window-width="1343"
   inkscape:pageshadow="2"
   inkscape:pageopacity="0"
   guidetolerance="10"
   gridtolerance="10"
   objecttolerance="10"
   borderopacity="1"
   inkscape:document-rotation="0"
   bordercolor="#666666"
   pagecolor="#ffffff" />
<style
   id="style833"
   type="text/css">
	.st0{fill:none;}
	.st1{fill:#17539F;}
	.st2{fill:#6ABD9E;}
</style>
<g
   id="g855">
	<path
   id="path835"
   d="M102.8,24.7c0-5.2-0.9-6-7.5-6c-3.4,0-5.1,0.3-6,1.2c-0.7,0.7-1,2.1-1.2,4.9h14.7V24.7z"
   class="st0" />
	<path
   id="path837"
   d="M170.8,18.6c-3.6,0-5.1,0.4-6,1.5c-1,1.3-1.3,4.2-1.3,8.1c0,4.3,0.1,7.2,1.2,8.5c0.9,1,2.4,1.5,6,1.5   c6.9,0,8.2-0.7,8.2-10c0-4.3-0.4-6.7-1.6-7.9C176.3,19.2,174.5,18.6,170.8,18.6z"
   class="st0" />
	<path
   id="path839"
   d="M133.5,18.7c-3.7,0-5.7,0.4-6.6,1.6c-1,1.2-1.5,3.6-1.5,8.1c0,4.6,0.4,6.9,1.5,8.1c1,1.2,2.8,1.6,6.6,1.6   c3.7,0,5.7-0.4,6.6-1.6c1-1.2,1.5-3.6,1.5-8.1c0-4.6-0.4-6.9-1.5-8.1C139,19.2,137.2,18.7,133.5,18.7z"
   class="st0" />
	<path
   id="path841"
   d="M208.8,18.7c-3.7,0-5.7,0.4-6.6,1.6c-1,1.2-1.5,3.6-1.5,8.1c0,4.6,0.4,6.9,1.5,8.1c1,1.2,2.8,1.6,6.6,1.6   s5.7-0.4,6.6-1.6c1-1.2,1.5-3.6,1.5-8.1c0-4.6-0.4-6.9-1.5-8.1C214.5,19.2,212.6,18.7,208.8,18.7z"
   class="st0" />
	<polygon
   style="fill:#ffffff;fill-opacity:1"
   id="polygon843"
   points="3.2,7.6 15,7.6 15,44.6 24.2,44.6 24.2,7.6 36,7.6 36,0 3.2,0  "
   class="st1" />
	<path
   style="fill:#ffffff;fill-opacity:1"
   id="path845"
   d="M60.3,11.4c-3.7,0-7.2,0.1-9.6,1.9V0h-8.8v44.8h8.8V26.2c0-5.8,1.5-7.2,7.3-7.2c6.6,0,7.2,1.3,7.2,6.9v18.9H74   v-21c0-4.8-0.9-7.6-2.8-9.4C69.1,12.3,65.8,11.4,60.3,11.4z"
   class="st1" />
	<path
   style="fill:#ffffff;fill-opacity:1"
   id="path847"
   d="M102.8,34.6c0,2.7,0,3.6-7.3,3.6c-3.1,0-4.9-0.3-5.8-1.3c-0.9-0.9-1.3-2.8-1.3-5.5h23.4v-0.6   c0-0.4,0-0.7,0-1.2c0-0.7,0.1-1.5,0.1-2.2c0-5.5-0.6-9.9-3.1-12.4c-2.4-2.4-6.1-3.4-13-3.4c-6.1,0-10.8,0.6-13.5,3.4   c-2.7,2.8-3.1,7.5-3.1,13.6c0,13.8,3.3,17.1,16.8,17.1c6.6,0,10.3-0.7,12.7-2.5c2.8-2.1,3.1-5.1,3.1-8.4H102.8z M95.5,18.6   c6.6,0,7.3,0.7,7.5,6H88.4c0-2.7,0.4-4.2,1.2-4.9C90.4,19,92,18.6,95.5,18.6z"
   class="st1" />
	<path
   style="fill:#ffffff;fill-opacity:1"
   id="path849"
   d="M133.5,11.4c-7,0-10.9,1-13.5,3.4c-2.5,2.5-3.6,6.4-3.6,13.6s1,11.1,3.6,13.6c2.5,2.5,6.4,3.4,13.5,3.4   c7,0,10.9-1,13.5-3.4c2.5-2.5,3.6-6.4,3.6-13.6s-1-11.1-3.6-13.6C144.4,12.4,140.5,11.4,133.5,11.4z M140.1,36.5   c-1,1.2-2.8,1.6-6.6,1.6c-3.7,0-5.7-0.4-6.6-1.6c-1-1.2-1.5-3.6-1.5-8.1c0-4.6,0.4-6.9,1.5-8.1s2.8-1.6,6.6-1.6   c3.7,0,5.7,0.4,6.6,1.6c1,1.2,1.5,3.6,1.5,8.1C141.6,33.1,141.1,35.3,140.1,36.5z"
   class="st1" />
	<path
   style="fill:#ffffff;fill-opacity:1"
   id="path851"
   d="M179.3,13.3c-2.2-1.8-5.7-1.9-9.9-1.9c-11.7,0-15,3.7-15,16.9c0,6.1,0.6,10.9,3.3,13.8   c2.4,2.5,6.1,3.6,13.2,3.6c7.3,0,11.4-1,13.9-3.7c2.8-3,3.4-7.6,3.4-13.6V0h-8.7v13.3H179.3z M170.8,38.3c-3.6,0-5.2-0.4-6-1.5   c-1-1.3-1.2-4.3-1.2-8.5c0-3.9,0.1-6.7,1.3-8.1c0.9-1.2,2.5-1.5,6-1.5c3.7,0,5.5,0.4,6.7,1.6c1.2,1.2,1.6,3.6,1.6,7.9   C179,37.4,177.7,38.3,170.8,38.3z"
   class="st2" />
	<path
   style="fill:#ffffff;fill-opacity:1"
   id="path853"
   d="M222.3,14.8c-2.5-2.5-6.4-3.4-13.5-3.4c-7,0-10.9,1-13.5,3.4c-2.5,2.5-3.6,6.4-3.6,13.6s1,11.1,3.6,13.6   c2.5,2.5,6.4,3.4,13.5,3.4c7,0,10.9-1,13.5-3.4c2.5-2.5,3.6-6.4,3.6-13.6C225.9,21.4,224.9,17.4,222.3,14.8z M215.4,36.5   c-1,1.2-2.8,1.6-6.6,1.6s-5.7-0.4-6.6-1.6c-1-1.2-1.5-3.6-1.5-8.1c0-4.6,0.4-6.9,1.5-8.1c1-1.2,2.8-1.6,6.6-1.6s5.7,0.4,6.6,1.6   c1,1.2,1.5,3.6,1.5,8.1C216.9,33.1,216.5,35.3,215.4,36.5z"
   class="st2" />
</g>
</svg>
