<svg version="1.2" xmlns="http://www.w3.org/2000/svg" viewBox="0 0 1782 418" width="1782" height="418">
	<title>Contrast_Logo_Pantone-ai</title>
	<style>
		.s0 { fill: #0f4c45 } 
		.s1 { fill: #151f4c } 
		.s2 { fill: #95aab7 } 
		.s3 { fill: #0d9f49 } 
	</style>
	<g id="Layer 1">
		<path id="&lt;Path&gt;" class="s0" d="m121.7 172.8c0 52.4 20.2 98.9 53.3 130.2q-7.8 0.7-16.2 0.7c-93.8 0-158.8-54.3-158.8-128.6 0-74.3 65-128.6 158.8-128.6q5.6 0 10.9 0.2c-30.1 31.5-48 76.4-48 126.1z"/>
		<path id="&lt;Compound Path&gt;" class="s3" d="m529.9 177.4c0-74.8 50.5-135.7 132.9-135.7 29 0 54 7.5 70.8 19.3 3.3 2.5 4 5.1 4 9.3v24c0 3.6-1.8 5.8-4.7 5.8-1.4 0-3.2-1.1-4.6-2.2-16.5-15.7-40.5-25-65.5-25-60.9 0-94.2 42.2-94.2 103.1 0 63 38.3 102 91.7 102 27.2 0 48.6-6.8 68.7-23.3 1.8-1.1 2.8-1.8 4.3-1.8 2.5 0 4.3 2.2 4.3 5v19c0 4.3-1.1 5.7-4 7.9-20.7 15.4-44 22.5-80.2 22.5-72.3 0-123.5-53.3-123.5-129.9z"/>
		<path id="&lt;Compound Path&gt;" fill-rule="evenodd" class="s3" d="m934.7 214.6c0 46.2-27.2 92.7-86.3 92.7-58.7 0-86.6-46.5-86.6-92.7 0-45.8 27.9-90.6 86.6-90.6 59.1 0 86.3 44.8 86.3 90.6zm-34.7 0.7c0-37.9-15.4-66.9-51.6-66.9-36.5 0-51.5 29.7-51.5 66.9 0 37.6 15.4 68.4 51.5 68.4 36.5 0 51.6-31.1 51.6-68.4z"/>
		<path id="&lt;Compound Path&gt;" class="s3" d="m986.7 130.1c1.8 0 2.8 1.8 3.2 3.3 1.1 7.5 2.1 22.1 2.1 33.6 9.7-25.1 35.8-43 68.8-43 30.8 0 55.5 19 55.5 55.9v119.6c0 1.4-1.8 3.2-3.3 3.2h-26.1c-1.8 0-3.2-1.8-3.2-3.2v-112.1c0-26.1-13.6-37.2-35.1-37.2-26.8 0-52.3 19.7-52.3 54.4v94.9c0 1.4-1.7 3.2-3.2 3.2h-26.1c-1.8 0-3.2-1.8-3.2-3.2v-137.5c0-18.6-2.5-26.1-2.5-28.6 0-1.5 1.4-3.3 2.8-3.3z"/>
		<path id="&lt;Compound Path&gt;" class="s3" d="m1184.9 89.3c1.1-2.1 2.1-2.8 4.3-2.8q4.3 0 4.3 4.3v10.7c0 8.9-1.1 20.4-2.5 29.7 9.6-0.7 28.3-1.1 41.5-1.1 1.4 0 2.5 1.1 2.5 3.3v18.6c0 1.8-0.7 2.8-2.5 2.8-12.5 0-29 0-41.5-1 1.1 10.3 1.1 20.7 1.1 39.7v56.9c0 22.9 11.1 30.1 26.1 30.1 4.6 0 9.3-0.7 12.5-2.5 2.5-1.1 4.3 0 4.3 2.1v21.5c0 1.8-1.4 3.2-3.2 3.6-6.5 1.4-12.9 2.1-18.3 2.1-29.7 0-54-17.9-54-56.2v-57.6c0-19 0.7-29.7 1.8-39.7-7.2 1-16.9 1-21.9 1-2.1 0-3.5-2.5-3.5-6.8 0-3.9 0.3-6.1 2.5-7.1 18.2-11.5 34-29.4 46.5-51.6z"/>
		<path id="&lt;Compound Path&gt;" class="s3" d="m1336.4 154.1c-24.3 0-37.2 24.4-37.2 51.6v93.8c0 1.4-1.8 3.2-3.2 3.2h-26.2c-1.8 0-3.2-1.8-3.2-3.2v-137.5c0-18.6-2.5-26.1-2.5-28.6 0-1.5 1.4-3.3 2.9-3.3h22.5c1.8 0 2.9 1.8 3.2 3.3 1.5 9.3 2.2 22.5 2.2 35.4 8.6-26.1 27.6-44.8 53.7-44.8 22.5 0 32.2 11.5 32.2 24.4 0 10.4-5.4 17.9-14.3 17.9-12.2 0-11.1-12.2-30.1-12.2z"/>
		<path id="&lt;Compound Path&gt;" fill-rule="evenodd" class="s3" d="m1517.7 177.4c0 21.5-1.8 54.8-1.8 74.4 0 25.1 5 38.7 10.4 42.6 1.4 1.5 1.8 2.6 1.8 4.3 0 2.2-2.2 4-4 4h-15.7c-5.4 0-7.9-2.2-9.7-6.5-3.9-6.8-6.8-18.2-7.1-29.7-10.1 25.1-30.5 40.8-60.9 40.8-32.6 0-52.3-19.3-52.3-45.4 0-35.8 34.8-65.2 107.4-69.5v-11.8c0-19.7-8.9-31.9-36.1-31.9-15.1 0-25.4 4.3-31.9 12.2-5 6.1-8.2 11.1-16.1 11.1-7.9 0-14-4.6-14-13.6 0-12.2 17.9-34.4 64.5-34.4 49 0 65.5 23 65.5 53.4zm-107.4 78.7c0 17.6 13.6 26.9 29.3 26.9 27.6 0 46.2-22.2 46.2-50.1v-22.9c-55.1 3.9-75.5 23.2-75.5 46.1z"/>
		<path id="&lt;Compound Path&gt;" class="s3" d="m1550 293c-2.1-1.8-2.9-3.9-2.9-6.1v-16.4c0-2.9 0.8-4.7 2.5-4.7 2.2 0 3.6 0.7 5.1 2.2 11.1 8.9 27.9 15.4 45.4 15.4 22.9 0 35.1-11.1 35.1-25.1 0-18.6-16.8-22.9-41.5-31.5-23.6-7.9-46.2-20.1-46.2-51.9 0-26.9 24-50.9 63.7-50.9 20.8 0 36.5 6.1 45.1 13.3 4.7 3.9 6.1 7.2 6.1 12.2 0 8.9-6.1 15-12.2 15-4.3 0-6.8-0.7-10-3.6-9.6-7.9-19.7-11.8-30.8-11.8-20.7 0-30.4 11.8-30.4 24.7 0 18.3 15 22.9 34 29.4 34.7 11.8 53.7 23.2 53.7 52.9 0 30.5-26.8 51.2-66.2 51.2-22.6 0-39.4-6.4-50.5-14.3z"/>
		<path id="&lt;Compound Path&gt;" class="s3" d="m1731.5 89.3c1.1-2.1 2.1-2.8 4.3-2.8q4.3 0 4.3 4.3v10.7c0 8.9-1.1 20.4-2.5 29.7 9.6-0.7 28.2-1.1 41.5-1.1 1.4 0 2.5 1.1 2.5 3.3v18.6c0 1.8-0.7 2.8-2.5 2.8-12.5 0-29 0-41.5-1 1 10.3 1 20.7 1 39.7v56.9c0 22.9 11.1 30.1 26.2 30.1 4.6 0 9.3-0.7 12.5-2.5 2.5-1.1 4.3 0 4.3 2.1v21.5c0 1.8-1.4 3.2-3.2 3.6-6.5 1.4-12.9 2.1-18.3 2.1-29.7 0-54-17.9-54-56.2v-57.6c0-19 0.7-29.7 1.8-39.7-7.2 1-16.9 1-21.9 1-2.1 0-3.6-2.5-3.6-6.8 0-3.9 0.4-6.1 2.5-7.1 18.3-11.5 34.1-29.4 46.6-51.6z"/>
		<g id="&lt;Group&gt;">
			<path id="&lt;Compound Path&gt;" class="s2" d="m578 398.4c0-8.5-6.6-10.7-17.6-15.2-9.7-3.8-18.3-9.2-18.3-20.9 0-10.5 8.4-20.6 24.1-20.6 7.2 0 13 1.7 18 5.1 1 0.7 1.1 1.3 1.1 2.5v7c0 0.9-0.5 1.5-1.3 1.5-0.5 0-0.9-0.2-1.3-0.7-4.9-4.8-10.7-7-17.2-7-8.5 0-13.1 5.1-13.1 11.2 0 8 7.3 10.7 15.5 14 13.7 5.1 20.4 10.9 20.4 22 0 13-10.6 20.7-24.8 20.7-9.9 0-15-1.9-21.3-6.5-0.7-0.6-1.1-1.2-1.1-2.3v-5.7c0-1 0.4-1.6 1.1-1.6 0.5 0 0.9 0.3 1.3 0.7 5.9 4.8 12.4 7.4 19.6 7.4 9.2 0 14.9-4.8 14.9-11.6z"/>
			<path id="&lt;Compound Path&gt;" class="s2" d="m663.3 408.5c0.4 0 0.7 0.3 0.7 0.9l-0.8 6.3c-0.1 0.6-0.2 0.9-0.7 0.9h-44.6c-0.6 0-1-0.5-1-1v-70.5c0-0.5 0.4-1 1-1h43.1c0.5 0 0.7 0.3 0.8 0.9l0.7 6.4c0 0.5-0.2 0.8-0.7 0.8-6.2 0-16.4-0.2-22.4-0.2-5.3 0-8.9-0.1-12.4-0.3 0.2 4 0.3 8.1 0.3 11.6 0 3.8-0.1 7.8-0.3 11.8 3.2-0.3 6.8-0.4 11.9-0.4 5.2 0 9-0.1 11.5-0.1 0.4 0 0.7 0.3 0.7 0.9v6.2c0 0.5-0.2 0.8-0.7 0.8-2.6 0-6.5-0.1-11.7-0.1-4.4 0-8.3-0.2-11.7-0.5 0.2 4.5 0.3 8.8 0.3 13 0 4.6-0.1 9.4-0.3 14.1 4.8-0.3 8.8-0.3 16.4-0.3 6.6 0 13.8-0.2 19.9-0.2z"/>
			<path id="&lt;Compound Path&gt;" class="s2" d="m682.7 380.6c0-21.4 14.4-38.9 38-38.9 8.4 0 15.5 2.2 20.4 5.6 0.9 0.7 1.1 1.4 1.1 2.7v6.8c0 1.1-0.5 1.7-1.3 1.7-0.4 0-1-0.3-1.4-0.6-4.7-4.6-11.6-7.2-18.8-7.2-17.4 0-26.9 12.1-26.9 29.5 0 18.1 10.9 29.3 26.2 29.3 7.8 0 14-2 19.7-6.7 0.6-0.3 0.9-0.5 1.3-0.5 0.7 0 1.2 0.6 1.2 1.4v5.5c0 1.2-0.3 1.6-1.1 2.2-6 4.4-12.7 6.5-23 6.5-20.7 0-35.4-15.3-35.4-37.3z"/>
			<path id="&lt;Compound Path&gt;" class="s2" d="m777.6 344.1c0.4 0 0.9 0.5 0.9 1v45.4c0 11.6 7.3 18.3 19.7 18.3 12.7 0 19.9-5.9 19.9-17.8v-45.9c0-0.5 0.5-1 1-1h8.3c0.4 0 0.9 0.5 0.9 1v47.2c0 15.6-12.1 25.6-30.1 25.6-17.9 0-30.1-10.1-30.1-25.9v-46.9c0-0.5 0.4-1 0.9-1z"/>
			<path id="&lt;Compound Path&gt;" fill-rule="evenodd" class="s2" d="m869.9 386.6c0.3 4.4 0.4 9 0.4 13.9v15.1c0 0.5-0.5 1-0.9 1h-8.6c-0.5 0-0.9-0.5-0.9-1v-70.2c0-0.7 0.5-1.3 0.9-1.3h21c16.8 0 24.3 9 24.3 20.2 0 11.2-10.1 19.2-20.6 20 5.2 1.2 12.8 8.6 20.2 17 5.7 6.3 9.8 11.1 12 12.2 0.5 0.2 0.6 0.7 0.6 1.4 0 1-0.5 1.7-1.3 1.7h-9.5c-1.3 0-2.3-0.7-4.6-3.7-9.1-10.6-19.9-26.1-27.2-26.1-1.1 0-4-0.1-5.8-0.2zm0.1-35c0.2 3.8 0.3 11.5 0.3 15.6 0 4.2-0.1 8.4-0.3 12.5 1.8-0.1 4.7-0.3 7.6-0.3 12.2 0 17.6-5.6 17.6-14.8 0-7.8-4.7-12.7-14.7-12.7-3.7 0-7-0.1-10.5-0.3z"/>
			<rect id="&lt;Compound Path&gt;" class="s2" x="942.3" y="344.1" width="10.4" height="72.5" rx="1"></rect>
			<path id="&lt;Compound Path&gt;" class="s2" d="m1040.1 344.9v7c0 0.4-0.3 0.7-0.8 0.7-3.8 0-8.3-0.2-12.1-0.2-4.5 0-9.2-0.1-13.7-0.3q0.3 5.7 0.3 11.4v52.1c0 0.5-0.5 1-0.9 1h-8.6c-0.5 0-0.9-0.5-0.9-1v-52.3c0-3.8 0.1-7.6 0.3-11.2-4.1 0.2-8.3 0.3-12.4 0.3-4.7 0-8.9 0.2-13.6 0.2-0.6 0-0.9-0.3-0.8-0.8l1-6.8c0.1-0.6 0.3-0.9 0.7-0.9h60.7c0.5 0 0.8 0.3 0.8 0.8z"/>
			<path id="&lt;Compound Path&gt;" class="s2" d="m1094.6 415.6c0 0.5-0.5 1-0.9 1h-8.5c-0.5 0-0.9-0.5-0.9-1v-30.6l-29.4-39.3c-0.6-0.8-0.6-1.6 0.5-1.6h9.6c0.9 0 1.4 0.5 1.7 1.1l16.9 22.3c2.3 3.4 4.5 6.7 6.1 10.4 2.1-3.9 4.1-7.2 6.4-10.3l16.9-22.4c0.6-0.9 1.4-1.1 2.2-1.1h8.6c1.1 0 1.1 0.8 0.5 1.6l-29.7 39.3z"/>
		</g>
		<path id="&lt;Path&gt;" class="s3" d="m398.9 71.4c4.4 28.6-17.6 52.1-54.9 52.1-56.1 0-66.1-72.2-174.3-76.8 27.4-28.7 64.9-46.4 108.3-46.4q1.3 0 2.5 0.1c62.5 0 113.5 39.8 118.4 71z"/>
		<path id="&lt;Path&gt;" class="s1" d="m366.4 228.2c14.5 2.8 33 12.7 33 42.7 0 41.8-65 72.9-119 73.4q-0.1 0-0.2 0-0.2 0-0.2 0-0.1 0-0.1 0c-41.1 0-77.4-15.5-104.9-41.3 95.2-8.1 139.8-84.9 191.4-74.8z"/>
	</g>
</svg>