<?xml version="1.0" encoding="utf-8"?>
<!-- Generator: Adobe Illustrator 24.2.3, SVG Export Plug-In . SVG Version: 6.00 Build 0)  -->
<svg version="1.1" id="Layer_1" xmlns="http://www.w3.org/2000/svg" xmlns:xlink="http://www.w3.org/1999/xlink" x="0px" y="0px"
	 viewBox="0 0 400 400" style="enable-background:new 0 0 400 400;" xml:space="preserve">
<style type="text/css">
	.st0{fill:#08083A;}
	.st1{fill:#DCDCDC;}
	.st2{fill:url(#Path_1_1_);}
	.st3{fill:url(#Path_2_1_);}
</style>
<g>
	<rect x="0.5" y="0.5" class="st0" width="400" height="400"/>
</g>
<g>
	<path id="Path_4611" class="st1" d="M46.8,330.2c-2,0-4-0.1-5.9-0.7c-1.4-0.3-2.9-0.9-4.2-1.6c-0.9-0.6-1.3-1.1-1.3-1.7
		c0.1-0.9,0.4-1.6,1-2.4c0.7-1,1.3-1.4,1.8-1.4c0.4,0.1,0.9,0.3,1.3,0.5c1,0.5,2,1,3,1.3c1.1,0.3,2.3,0.5,3.5,0.5
		c1.2,0,2.8-0.3,3.7-1.1c1-0.7,1.5-2,1.5-3.3c0-0.9-0.3-1.5-0.7-2.3c-0.6-0.6-1.1-1.1-1.9-1.5c-0.8-0.4-1.9-0.9-3.1-1.4l-1.8-0.7
		c-1.4-0.6-2.8-1.3-3.8-2.1c-1.1-0.9-2-1.9-2.5-3c-0.7-1.4-1-3.1-1-4.8c0-1.9,0.4-3.9,1.5-5.4c1-1.4,2.5-2.8,4.3-3.3
		c1.9-0.7,3.8-1.1,5.8-1.1c1.4,0,2.9,0.1,4.3,0.4c1.1,0.3,2.3,0.7,3.3,1.3c0.7,0.4,1,1,1,1.4c-0.1,0.9-0.4,1.5-0.9,2.3
		c-0.5,1-1,1.4-1.4,1.4c-0.3,0-0.6-0.1-0.9-0.3c-0.4-0.1-0.7-0.3-0.9-0.4c-1.3-0.6-2.9-0.9-4.3-0.9c-1.4-0.1-2.9,0.3-4,1.1
		c-0.9,0.7-1.3,1.7-1.3,2.8c0,0.9,0.3,1.7,0.7,2.4c0.5,0.5,1.1,1.1,1.9,1.4c0.7,0.4,1.9,0.9,3.3,1.4c1.5,0.5,3.1,1.4,4.7,2.3
		c1.3,0.7,2.4,1.9,3.1,3.1c1,1.5,1.4,3.4,1.3,5.1c0.3,3-1,5.8-3.1,7.8C52.6,329.4,49.7,330.3,46.8,330.2z M74.2,330.2
		c-4.3,0-7.6-1.1-9.6-3.4c-2.1-2.3-3.1-5.5-3.1-9.8c0-4.5,1-7.9,3.1-10.2c2.3-2.3,5.5-3.5,8.8-3.3c3.1-0.3,6.2,1.1,7.9,3.5
		c1.9,2.8,2.9,6.1,2.5,9.4c-0.1,0.6-0.4,1.1-0.9,1.5c-0.6,0.7-1,1-1.3,1H68.1c0,1.6,0.6,3.4,1.9,4.7c1.3,1,2.9,1.5,4.5,1.4
		c1.9,0,3.8-0.5,5.5-1.4c0.3-0.1,0.7-0.3,1-0.3c0.4,0,0.9,0.4,1.4,1.3c0.4,0.5,0.7,1.3,0.9,2c0,0.6-0.4,1.3-1.4,1.7
		c-1.1,0.5-2.3,1-3.5,1.3C76.8,330,75.4,330.2,74.2,330.2z M77.7,314.6c0.1-1.5-0.3-3.1-1.1-4.4c-0.7-1-2-1.7-3.3-1.5
		c-3.1,0-4.8,2-5.3,5.9H77.7z M92.2,330c-1.8,0-2.8-0.4-2.8-1.4v-16.3c0-1.5,0-3.3-0.3-4.8c-0.1-0.6-0.3-1.3-0.3-1.9
		c0-0.4,0.6-0.9,1.8-1.1c1-0.3,2-0.4,3-0.4c0.4,0,1,0.3,1.1,0.7c0.3,0.4,0.4,1,0.6,1.4c0.1,0.5,0.1,0.9,0.3,1.1
		c1.5-2.5,3.4-3.7,5.5-3.7c0.9-0.1,1.5,0.1,2.3,0.6c0.4,0.4,0.7,1.1,0.6,1.9c0,0.9-0.1,1.5-0.4,2.3c-0.3,0.9-0.5,1.3-1,1.3
		c-0.3,0-0.7-0.1-1-0.3c-0.4-0.1-1-0.3-1.4-0.3c-1,0-1.9,0.3-2.5,1c-0.5,0.4-1.1,1.1-1.5,1.6v16.7c0,1-0.9,1.4-2.8,1.4L92.2,330
		L92.2,330z M115.5,330c-1.4,0-2.3-0.3-2.5-1l-7.9-23.4c0-0.1-0.1-0.3-0.1-0.4s0-0.3,0-0.4c0-0.7,0.9-1,2.7-1h1.1
		c1.4,0,2.3,0.3,2.5,1l3.4,10.7c0.7,2.4,1.4,4.8,1.9,7.3h0.1c0.4-2.5,1-5.1,1.9-7.7l3.3-10.3c0.3-0.5,1.1-1,2.5-1h0.9
		c1.8,0,2.8,0.3,2.8,1c0,0.3,0,0.5-0.1,0.9l-7.9,23.4c-0.3,0.6-1.1,1-2.5,1L115.5,330z M142.9,330.2c-4.3,0-7.6-1.1-9.6-3.4
		c-2.1-2.3-3.1-5.5-3.1-9.8c0-4.5,1-7.9,3.1-10.2c2.3-2.3,5.5-3.5,8.8-3.3c3.1-0.3,6.2,1.1,7.9,3.5c1.9,2.8,2.9,6.1,2.5,9.4
		c-0.1,0.6-0.4,1.1-0.9,1.5c-0.6,0.7-1,1-1.3,1h-13.8c0,1.6,0.6,3.4,1.9,4.7c1.3,1,2.9,1.5,4.5,1.4c1.9,0,3.8-0.5,5.4-1.4
		c0.3-0.1,0.7-0.3,1-0.3c0.4,0,0.9,0.4,1.4,1.3c0.4,0.5,0.7,1.3,0.9,2c0,0.6-0.4,1.3-1.4,1.7c-1.1,0.5-2.3,1-3.5,1.3
		C145.5,330,144.2,330.2,142.9,330.2z M146.5,314.6c0.1-1.5-0.3-3.1-1.1-4.4c-0.7-1-2-1.7-3.3-1.5c-3.1,0-4.8,2-5.3,5.9H146.5z
		 M160.8,330c-1.8,0-2.8-0.4-2.8-1.4v-16.3c0-1.5,0-3.3-0.3-4.8c-0.1-0.6-0.3-1.3-0.3-1.9c0-0.4,0.6-0.9,1.8-1.1c1-0.3,2-0.4,3-0.4
		c0.4,0,1,0.3,1.1,0.7c0.3,0.4,0.4,1,0.6,1.4c0.1,0.5,0.1,0.9,0.3,1.1c1.5-2.5,3.4-3.7,5.5-3.7c0.9-0.1,1.5,0.1,2.3,0.6
		c0.4,0.4,0.7,1.1,0.6,1.9c0,0.9-0.1,1.5-0.4,2.3c-0.3,0.9-0.6,1.3-1,1.3c-0.3,0-0.7-0.1-1-0.3c-0.4-0.1-1-0.3-1.4-0.3
		c-1,0-1.9,0.3-2.5,1c-0.6,0.4-1.1,1.1-1.5,1.6v16.7c0,1-0.9,1.4-2.8,1.4L160.8,330z M183.3,330.2c-1.9,0.1-3.7-0.5-5.2-1.9
		c-1.4-1.5-2.1-3.7-1.9-5.8v-28.8c0-1,0.9-1.4,2.8-1.4h1c1.8,0,2.8,0.4,2.8,1.4v28.8c0,0.7,0.1,1.4,0.6,2.1c0.4,0.4,1,0.7,1.5,0.6
		c0.3,0,0.6,0,1-0.1c0.1,0,0.4-0.1,0.7-0.1c0.4,0,0.7,0.4,1,1.3c0.3,0.5,0.3,1.3,0.4,1.9C187.7,329.4,186.3,330.2,183.3,330.2z
		 M201.1,330.2c-4.3,0-7.6-1.1-9.6-3.4c-2.1-2.3-3.1-5.5-3.1-9.8c0-4.5,1-7.9,3.1-10.2c2.3-2.3,5.5-3.5,8.8-3.3
		c3.1-0.3,6.2,1.1,7.9,3.5c1.9,2.8,2.9,6.1,2.5,9.4c-0.1,0.6-0.4,1.1-0.9,1.5c-0.6,0.7-1,1-1.3,1H195c0,1.6,0.6,3.4,1.9,4.7
		c1.3,1,2.9,1.5,4.5,1.4c1.9,0,3.8-0.5,5.4-1.4c0.3-0.1,0.7-0.3,1-0.3c0.4,0,0.9,0.4,1.4,1.3c0.4,0.5,0.7,1.3,0.9,2
		c0,0.6-0.4,1.3-1.4,1.7c-1.1,0.5-2.3,1-3.5,1.3C203.8,330,202.4,330.2,201.1,330.2z M204.7,314.6c0.1-1.5-0.3-3.1-1.1-4.4
		c-0.7-1-2-1.7-3.3-1.5c-3.1,0-4.8,2-5.3,5.9H204.7L204.7,314.6z M222.5,330.3c-1.3,0-2.5-0.1-3.9-0.4c-1.1-0.3-2.1-0.7-3.1-1.3
		c-0.9-0.5-1.1-1-1.1-1.5c0.1-0.7,0.4-1.5,0.9-2.1c0.5-0.9,1.1-1.3,1.4-1.3c0.4,0.1,0.7,0.3,1.1,0.4c0.6,0.3,1.3,0.5,1.9,0.9
		c0.7,0.3,1.5,0.4,2.3,0.3c1,0,2-0.1,2.8-0.7c0.5-0.4,1-1.3,0.9-2c0-0.7-0.3-1.5-1-2c-1-0.7-2.1-1.3-3.3-1.6
		c-1.2-0.3-2.1-0.9-3.1-1.4c-1-0.5-1.8-1.4-2.3-2.3c-0.7-1.1-1-2.5-0.9-3.9c-0.1-2.1,0.7-4.3,2.4-5.7c1.9-1.4,4.2-2.3,6.4-2.1
		c1.8,0,3.3,0.3,4.8,0.7c1.5,0.4,2.3,1.1,2.3,1.9c0,0.8-0.3,1.5-0.7,2.1c-0.4,0.9-0.9,1.3-1.3,1.3c-0.4-0.1-1-0.3-1.4-0.5
		c-1-0.4-2-0.6-3.1-0.6c-0.9,0-1.8,0.1-2.4,0.6c-0.6,0.4-0.9,1-0.9,1.6s0.3,1.4,0.9,1.9c1,0.5,2,1.1,3.1,1.4
		c1.9,0.6,3.4,1.5,4.8,2.9c1.3,1.4,2,3.3,1.9,5.1c0,2.3-0.9,4.4-2.5,5.9C227.6,329.6,225.1,330.4,222.5,330.3L222.5,330.3z
		 M243.2,330.3c-1.3,0-2.5-0.1-3.9-0.4c-1.1-0.3-2.1-0.7-3.1-1.3c-0.9-0.5-1.1-1-1.1-1.5c0.1-0.7,0.4-1.5,0.9-2.1
		c0.6-0.9,1.1-1.3,1.4-1.3c0.4,0.1,0.7,0.3,1.1,0.4c0.5,0.3,1.3,0.5,1.9,0.9c0.7,0.3,1.5,0.4,2.3,0.3c1,0,2-0.1,2.8-0.7
		c0.6-0.4,1-1.3,0.9-2c0-0.7-0.3-1.5-1-2c-1-0.7-2.1-1.3-3.3-1.6c-1.2-0.3-2.1-0.9-3.1-1.4c-1-0.5-1.8-1.4-2.3-2.3
		c-0.7-1.1-1-2.5-0.9-3.9c-0.1-2.1,0.7-4.3,2.4-5.7c1.9-1.4,4.2-2.3,6.4-2.1c1.8,0,3.3,0.3,4.8,0.7c1.5,0.4,2.3,1.1,2.3,1.9
		c0,0.8-0.3,1.5-0.7,2.1c-0.4,0.9-0.9,1.3-1.3,1.3c-0.4-0.1-1-0.3-1.4-0.5c-1-0.4-2-0.6-3.1-0.6c-0.9,0-1.8,0.1-2.4,0.6
		c-0.6,0.4-0.9,1-0.9,1.6s0.3,1.4,0.9,1.9c1,0.5,2,1.1,3.1,1.4c1.9,0.6,3.4,1.5,4.8,2.9c1.3,1.4,2,3.3,1.9,5.1
		c0,2.3-0.9,4.4-2.5,5.9C248,329.6,245.6,330.4,243.2,330.3L243.2,330.3z M288.9,311c0.5,0,1,0.1,1.4,0.4c0.3,0.4,0.4,0.9,0.4,1.4
		v13.6c0,1.4-1.1,2.4-3.5,3c-2.5,0.6-5.3,0.9-7.9,0.9c-5.4,0-9.4-1.4-12.1-4.3c-2.8-2.9-4-7.4-4-13.3c0-11.9,5.5-17.7,16.5-17.7
		c1.5,0,3.1,0.1,4.7,0.4c1.4,0.3,2.8,0.6,4,1.3c1,0.6,1.5,1.1,1.5,1.6c0,0.6-0.1,1.1-0.4,1.5c-0.3,0.5-0.7,1.1-1.1,1.6
		c-0.3,0.4-0.7,0.7-1.1,0.7c-0.4-0.1-0.9-0.3-1.3-0.5c-0.9-0.4-1.8-0.7-2.8-0.9c-1.3-0.3-2.4-0.4-3.7-0.4c-3.4,0-5.8,1-7.4,3
		c-1.5,2-2.3,5-2.3,9.1c0,8.3,3.1,12.2,9.4,12.2c1.5,0,3.3-0.1,4.8-0.4v-7.7h-4.8c-0.4,0-0.9-0.1-1-0.5c-0.3-0.6-0.4-1.1-0.3-1.7
		v-1.3c0-0.6,0-1.1,0.3-1.6c0.3-0.3,0.5-0.6,1-0.6h9.7V311L288.9,311z M305.2,330.2c-5,0-7.6-2.8-7.6-8.1v-16.8
		c0-0.4,0.3-0.9,0.5-1.1c0.6-0.3,1.3-0.4,2-0.3h1c1.8,0,2.8,0.4,2.8,1.4v16.1c-0.3,1.9,1,3.4,2.9,3.7c0.3,0,0.5,0,1,0
		c1,0,2-0.3,2.8-0.9c0.9-0.6,1.5-1.3,2.1-2.1v-16.7c0-1,0.9-1.4,2.8-1.4h1c1.8,0,2.8,0.4,2.8,1.4v16.2c0,1.6,0,3.3,0.3,5
		c0.1,0.5,0.3,1.3,0.3,1.9c0,0.4-0.5,0.9-1.8,1.1c-1,0.3-2,0.4-3,0.4c-0.4,0-1-0.3-1.1-0.7c-0.3-0.5-0.4-1-0.5-1.5
		c-0.1-0.6-0.1-1-0.3-1.1c-0.9,1.1-2.1,2-3.4,2.8C308.1,329.9,306.7,330.2,305.2,330.2z M328.4,330c-1.8,0-2.8-0.4-2.8-1.4v-16.3
		c0-1.5,0-3.3-0.3-4.8c-0.1-0.6-0.3-1.3-0.3-1.9c0-0.4,0.5-0.9,1.8-1.1c1-0.3,2-0.4,3-0.4c0.4,0,1,0.3,1.1,0.7
		c0.3,0.4,0.4,1,0.5,1.4c0.1,0.5,0.1,0.9,0.3,1.1c1.5-2.5,3.4-3.7,5.5-3.7c0.9-0.1,1.5,0.1,2.3,0.6c0.4,0.4,0.7,1.1,0.5,1.9
		c0,0.9-0.1,1.5-0.4,2.3c-0.3,0.9-0.5,1.3-1,1.3c-0.3,0-0.7-0.1-1-0.3c-0.4-0.1-1-0.3-1.4-0.3c-1,0-1.9,0.3-2.5,1
		c-0.6,0.4-1.1,1.1-1.5,1.6v16.7c0,1-0.9,1.4-2.8,1.4L328.4,330L328.4,330z M351.1,330.2c-5,0-7.6-2.8-7.6-8.1v-16.8
		c0-0.4,0.3-0.9,0.5-1.1c0.6-0.3,1.3-0.4,2-0.3h1c1.8,0,2.8,0.4,2.8,1.4v16.1c-0.3,1.9,1,3.4,2.9,3.7c0.3,0,0.6,0,1,0
		c1,0,2-0.3,2.8-0.9c0.9-0.6,1.5-1.3,2.1-2.1v-16.7c0-1,0.9-1.4,2.8-1.4h1c1.8,0,2.8,0.4,2.8,1.4v16.2c0,1.6,0,3.3,0.3,5
		c0.1,0.5,0.3,1.3,0.3,1.9c0,0.4-0.5,0.9-1.8,1.1c-1,0.3-2,0.4-3,0.4c-0.4,0-1-0.3-1.1-0.7c-0.3-0.5-0.4-1-0.5-1.5
		c-0.1-0.6-0.1-1-0.3-1.1c-0.9,1.1-2.1,2-3.4,2.8C354.2,329.9,352.5,330.2,351.1,330.2L351.1,330.2z"/>
	<g>
		
			<linearGradient id="Path_1_1_" gradientUnits="userSpaceOnUse" x1="-713.9852" y1="848.0588" x2="-712.967" y2="846.755" gradientTransform="matrix(135.386 0 0 -142.0166 96867.4141 120505.1328)">
			<stop  offset="0" style="stop-color:#6316C9"/>
			<stop  offset="1" style="stop-color:#B11244"/>
		</linearGradient>
		<path id="Path_1" class="st2" d="M290.8,126.4c40.4,0,73.7,32.8,73.7,73c0,39.3-31.2,71.6-70.7,72.8c0.4,0,0.9,0,1.4,0h-18
			l-57.3-86.1l20,1.7l-68-113c51.9-14.1,91.7,8.9,110.8,52C285.4,126.6,288.2,126.5,290.8,126.4z"/>
		
			<linearGradient id="Path_2_1_" gradientUnits="userSpaceOnUse" x1="-714.7603" y1="847.2857" x2="-714.1058" y2="846.3488" gradientTransform="matrix(148.879 0 0 -133.619 106502.1797 113367.1797)">
			<stop  offset="0" style="stop-color:#48A0F9"/>
			<stop  offset="1" style="stop-color:#6316C9"/>
		</linearGradient>
		<path id="Path_2" class="st3" d="M223.5,272.2H98.4c-34.1,0-61.9-27.6-61.9-61.7s27.7-61.7,61.9-61.7c1.1,0,2.3,0,3.3,0.1
			c2.4-13.8,7.8-26.9,15.9-38.4c7.9-11.3,18.3-20.9,30-27.8l51.5,82.9l-23.2-3.3l72.4,109.8h-24.9V272.2z"/>
	</g>
</g>
</svg>
