<svg version="1.2" xmlns="http://www.w3.org/2000/svg" viewBox="0 0 360 120" width="360" height="120">
	<title>vendia-svg</title>
	<path id="Layer" fill-rule="evenodd" d="m77.8 31v17l-23.9-9.8zm-52.9 20.3v15l52.9 21.8v-15.5z"/>
	<path id="Layer" fill-rule="evenodd" d="m25 88v-17l23.8 9.9zm52.9-20.2v-15.1l-52.9-21.7v15.5z"/>
	<path id="Layer" fill-rule="evenodd" d="m253 31l5.6 0.1 5.6 0.1 0.1 27.8 0.1 27.8h-11.1v-4.3l-1.6 1.6c-5.3 5.1-14.4 5.1-19.2 0-3.6-3.8-4.7-7.6-4.7-15.7 0.1-14.4 7.3-21.9 21.2-22h4zm37.8 0.1v10.6l-6.5-0.1-6.5-0.1v-10.4zm-194.2 5.2l6.2 0.1 0.6 1.8c0.7 1.9 1.1 3.3 2.6 8.3 0.4 1.5 1.2 3.9 1.6 5.3 0.8 2.1 2.3 7.2 4.4 13.9 2.6 8.6 2.3 8.2 3.6 3.8 1.3-4.2 3.9-12.7 5.7-18.1 0.7-2.2 1.5-4.8 1.7-5.7 0.3-0.9 1.1-3.4 1.8-5.6l1.2-3.9h6c3.2 0 5.9 0.1 5.9 0.2 0 0.2-3.2 9.8-10.1 30.1-2.7 8-5.4 15.9-5.9 17.5l-0.9 2.8h-13.9l-0.4-1c-0.3-0.5-0.7-1.7-0.9-2.6-0.3-0.9-1.6-4.8-2.9-8.7-1.4-3.8-2.7-7.7-3-8.6-0.2-0.9-0.9-2.9-1.4-4.4-0.6-1.5-1.5-4.1-2.1-5.9-0.5-1.7-1.3-3.7-1.6-4.5-0.3-0.9-0.9-2.8-1.4-4.5-0.6-1.6-1.5-4.5-2.2-6.4-0.7-2-1.2-3.7-1.1-3.8 0.1-0.1 3-0.2 6.5-0.1zm78.8 32.1v2.3h-25.7l0.2 1c1.3 5.7 10.1 8.1 18.4 4.9 2.2-0.8 3.1-1 3.2-0.7 0.1 0.3 0.4 1.3 0.5 2.3 0.2 1 0.6 2.8 0.8 4q0.7 3.2-0.8 3.2c-0.2 0-0.9 0.2-1.5 0.5-7.2 3.2-18.6 2.6-24.5-1.4-13-8.6-9.5-33.1 5.3-37.3 14.2-4.1 24.1 4.6 24.1 21.2zm42.4-16.9c2.3 3.4 2.4 4.2 2.4 20.5v14.8h-11.4v-24.8c0 0 0-1.4-0.2-2.1-0.2-0.6-0.6-1.1-0.6-1.1-2.8-4.1-8.7-2.8-12.6 2.9l-1.3 1.8v23.3h-11.7l0.1-19.5 0.1-19.6 5.6-0.1 5.6-0.1v5.5l1.9-2c2-2.2 3.1-2.9 5.8-3.9 5.5-2 13.3 0.1 16.3 4.4zm117.1-3.5l1 0.4v38.4h-10.7l0.2-2.7 0.2-2.8-1.4 1.8c-5.5 7-15.7 6.4-20.3-1.1-3-4.9-4.1-17.1-2.1-22.2 3-7.4 6.6-10.9 13.2-12.6 4.3-1.2 15.9-0.7 19.9 0.8zm-63.2-0.4h18.7v29.3h6.6v9.9h-25.4l0.2-9.7 7.2-0.2v-19.8h-7.3zm-121.6 12.8c0 0.3-0.2 0.8-0.5 1.1-0.3 0.3 1.3 0.4 7.2 0.4h7.6l-0.2-0.8c-0.5-1.7-1.9-3.7-3-4.4-3.6-2.2-11.1 0.3-11.1 3.7zm91.6-1.4c-3.6 4.4-3.6 14.7 0 17.9 2.9 2.5 6.4 1 9.9-4.3l1.3-2v-13.5l-0.9-0.3c-3.1-1.2-8.4 0-10.3 2.2zm70.2 8.8c-0.1 11.9 6 13.8 11.9 3.7l1.1-1.9v-6.4c0-6.3 0-6.3-0.8-6.6-7.3-1.9-12.1 2.5-12.2 11.2z"/>
</svg>